<mxfile host="app.diagrams.net" agent="Mozilla/5.0 (Windows NT 10.0; Win64; x64) AppleWebKit/537.36 (KHTML, like Gecko) Chrome/126.0.0.0 Safari/537.36 OPR/112.0.0.0" version="24.7.12">
  <diagram id="C5RBs43oDa-KdzZeNtuy" name="Page-1">
    <mxGraphModel dx="1121" dy="599" grid="1" gridSize="10" guides="1" tooltips="1" connect="1" arrows="1" fold="1" page="1" pageScale="1" pageWidth="827" pageHeight="1169" math="0" shadow="0">
      <root>
        <mxCell id="WIyWlLk6GJQsqaUBKTNV-0" />
        <mxCell id="WIyWlLk6GJQsqaUBKTNV-1" parent="WIyWlLk6GJQsqaUBKTNV-0" />
        <mxCell id="3LsAdrbxMUr_38dIZ2-f-0" value="SampleDuck" style="shape=module;align=left;spacingLeft=20;align=center;verticalAlign=top;whiteSpace=wrap;html=1;" vertex="1" parent="WIyWlLk6GJQsqaUBKTNV-1">
          <mxGeometry x="40" y="207" width="370" height="330" as="geometry" />
        </mxCell>
        <mxCell id="QlOkIQeldyx6gdsehzbM-0" value="main" style="shape=module;align=left;spacingLeft=20;align=center;verticalAlign=top;whiteSpace=wrap;html=1;" parent="WIyWlLk6GJQsqaUBKTNV-1" vertex="1">
          <mxGeometry x="40" y="40" width="240" height="80" as="geometry" />
        </mxCell>
        <mxCell id="QlOkIQeldyx6gdsehzbM-1" value="App" style="html=1;whiteSpace=wrap;" parent="WIyWlLk6GJQsqaUBKTNV-1" vertex="1">
          <mxGeometry x="105" y="80" width="110" height="20" as="geometry" />
        </mxCell>
        <mxCell id="QlOkIQeldyx6gdsehzbM-2" value="Handler" style="shape=module;align=left;spacingLeft=20;align=center;verticalAlign=top;whiteSpace=wrap;html=1;" parent="WIyWlLk6GJQsqaUBKTNV-1" vertex="1">
          <mxGeometry x="410" y="46" width="250" height="120" as="geometry" />
        </mxCell>
        <mxCell id="QlOkIQeldyx6gdsehzbM-4" value="DuckHandler" style="swimlane;fontStyle=0;childLayout=stackLayout;horizontal=1;startSize=26;fillColor=none;horizontalStack=0;resizeParent=1;resizeParentMax=0;resizeLast=0;collapsible=1;marginBottom=0;whiteSpace=wrap;html=1;" parent="WIyWlLk6GJQsqaUBKTNV-1" vertex="1">
          <mxGeometry x="455" y="90" width="175" height="52" as="geometry" />
        </mxCell>
        <mxCell id="QlOkIQeldyx6gdsehzbM-5" value="+ Handle(duck : Duck) : void" style="text;strokeColor=none;fillColor=none;align=left;verticalAlign=top;spacingLeft=4;spacingRight=4;overflow=hidden;rotatable=0;points=[[0,0.5],[1,0.5]];portConstraint=eastwest;whiteSpace=wrap;html=1;" parent="QlOkIQeldyx6gdsehzbM-4" vertex="1">
          <mxGeometry y="26" width="175" height="26" as="geometry" />
        </mxCell>
        <mxCell id="QlOkIQeldyx6gdsehzbM-8" style="edgeStyle=orthogonalEdgeStyle;rounded=0;orthogonalLoop=1;jettySize=auto;html=1;entryX=0;entryY=0.25;entryDx=0;entryDy=0;startArrow=diamondThin;startFill=1;strokeWidth=1;startSize=13;" parent="WIyWlLk6GJQsqaUBKTNV-1" source="QlOkIQeldyx6gdsehzbM-1" target="QlOkIQeldyx6gdsehzbM-4" edge="1">
          <mxGeometry relative="1" as="geometry" />
        </mxCell>
        <mxCell id="QlOkIQeldyx6gdsehzbM-9" value="Duck" style="shape=module;align=left;spacingLeft=20;align=center;verticalAlign=top;whiteSpace=wrap;html=1;" parent="WIyWlLk6GJQsqaUBKTNV-1" vertex="1">
          <mxGeometry x="420" y="210" width="370" height="330" as="geometry" />
        </mxCell>
        <mxCell id="QlOkIQeldyx6gdsehzbM-10" value="Duck" style="swimlane;fontStyle=1;align=center;verticalAlign=top;childLayout=stackLayout;horizontal=1;startSize=26;horizontalStack=0;resizeParent=1;resizeParentMax=0;resizeLast=0;collapsible=1;marginBottom=0;whiteSpace=wrap;html=1;" parent="WIyWlLk6GJQsqaUBKTNV-1" vertex="1">
          <mxGeometry x="455" y="240" width="320" height="284" as="geometry" />
        </mxCell>
        <mxCell id="QlOkIQeldyx6gdsehzbM-11" value="- m_quack&lt;span style=&quot;text-align: center;&quot;&gt;Behavior : IQuackBehavior&lt;/span&gt;" style="text;strokeColor=none;fillColor=none;align=left;verticalAlign=top;spacingLeft=4;spacingRight=4;overflow=hidden;rotatable=0;points=[[0,0.5],[1,0.5]];portConstraint=eastwest;whiteSpace=wrap;html=1;" parent="QlOkIQeldyx6gdsehzbM-10" vertex="1">
          <mxGeometry y="26" width="320" height="26" as="geometry" />
        </mxCell>
        <mxCell id="QlOkIQeldyx6gdsehzbM-21" value="- m_fly&lt;span style=&quot;text-align: center;&quot;&gt;Behavior : IFlyBehavior&lt;/span&gt;" style="text;strokeColor=none;fillColor=none;align=left;verticalAlign=top;spacingLeft=4;spacingRight=4;overflow=hidden;rotatable=0;points=[[0,0.5],[1,0.5]];portConstraint=eastwest;whiteSpace=wrap;html=1;" parent="QlOkIQeldyx6gdsehzbM-10" vertex="1">
          <mxGeometry y="52" width="320" height="26" as="geometry" />
        </mxCell>
        <mxCell id="QlOkIQeldyx6gdsehzbM-22" value="- m_dance&lt;span style=&quot;text-align: center;&quot;&gt;Behavior : IDanceBehavior&lt;/span&gt;" style="text;strokeColor=none;fillColor=none;align=left;verticalAlign=top;spacingLeft=4;spacingRight=4;overflow=hidden;rotatable=0;points=[[0,0.5],[1,0.5]];portConstraint=eastwest;whiteSpace=wrap;html=1;" parent="QlOkIQeldyx6gdsehzbM-10" vertex="1">
          <mxGeometry y="78" width="320" height="26" as="geometry" />
        </mxCell>
        <mxCell id="QlOkIQeldyx6gdsehzbM-12" value="" style="line;strokeWidth=1;fillColor=none;align=left;verticalAlign=middle;spacingTop=-1;spacingLeft=3;spacingRight=3;rotatable=0;labelPosition=right;points=[];portConstraint=eastwest;strokeColor=inherit;" parent="QlOkIQeldyx6gdsehzbM-10" vertex="1">
          <mxGeometry y="104" width="320" height="8" as="geometry" />
        </mxCell>
        <mxCell id="QlOkIQeldyx6gdsehzbM-13" value="+ Duck(quackBehavior : unique_ptr&amp;lt;IQuackBehavior&amp;gt;,&lt;div&gt;&lt;span style=&quot;white-space: pre;&quot;&gt;&#x9;&lt;/span&gt;flyBehavior: unique_ptr&amp;lt;IFlyBehavior&amp;gt;,&lt;br&gt;&lt;/div&gt;&lt;div&gt;&lt;span style=&quot;white-space: pre;&quot;&gt;&#x9;&lt;/span&gt;danceBehavior: unique_ptr&amp;lt;DanceBehavior&amp;gt;&lt;br&gt;&lt;/div&gt;&lt;div&gt;) : constructor&lt;/div&gt;" style="text;strokeColor=none;fillColor=none;align=left;verticalAlign=top;spacingLeft=4;spacingRight=4;overflow=hidden;rotatable=0;points=[[0,0.5],[1,0.5]];portConstraint=eastwest;whiteSpace=wrap;html=1;" parent="QlOkIQeldyx6gdsehzbM-10" vertex="1">
          <mxGeometry y="112" width="320" height="68" as="geometry" />
        </mxCell>
        <mxCell id="QlOkIQeldyx6gdsehzbM-37" value="+ Swim() : void" style="text;strokeColor=none;fillColor=none;align=left;verticalAlign=top;spacingLeft=4;spacingRight=4;overflow=hidden;rotatable=0;points=[[0,0.5],[1,0.5]];portConstraint=eastwest;whiteSpace=wrap;html=1;" parent="QlOkIQeldyx6gdsehzbM-10" vertex="1">
          <mxGeometry y="180" width="320" height="26" as="geometry" />
        </mxCell>
        <mxCell id="QlOkIQeldyx6gdsehzbM-38" value="+ Quack() : void" style="text;strokeColor=none;fillColor=none;align=left;verticalAlign=top;spacingLeft=4;spacingRight=4;overflow=hidden;rotatable=0;points=[[0,0.5],[1,0.5]];portConstraint=eastwest;whiteSpace=wrap;html=1;" parent="QlOkIQeldyx6gdsehzbM-10" vertex="1">
          <mxGeometry y="206" width="320" height="26" as="geometry" />
        </mxCell>
        <mxCell id="QlOkIQeldyx6gdsehzbM-39" value="+ Fly() : void" style="text;strokeColor=none;fillColor=none;align=left;verticalAlign=top;spacingLeft=4;spacingRight=4;overflow=hidden;rotatable=0;points=[[0,0.5],[1,0.5]];portConstraint=eastwest;whiteSpace=wrap;html=1;" parent="QlOkIQeldyx6gdsehzbM-10" vertex="1">
          <mxGeometry y="232" width="320" height="26" as="geometry" />
        </mxCell>
        <mxCell id="QlOkIQeldyx6gdsehzbM-40" value="+ Dance() : void" style="text;strokeColor=none;fillColor=none;align=left;verticalAlign=top;spacingLeft=4;spacingRight=4;overflow=hidden;rotatable=0;points=[[0,0.5],[1,0.5]];portConstraint=eastwest;whiteSpace=wrap;html=1;" parent="QlOkIQeldyx6gdsehzbM-10" vertex="1">
          <mxGeometry y="258" width="320" height="26" as="geometry" />
        </mxCell>
        <mxCell id="QlOkIQeldyx6gdsehzbM-15" value="&lt;div&gt;&lt;i&gt;&amp;lt;&amp;lt;interface&amp;gt;&lt;/i&gt;&lt;/div&gt;&lt;i&gt;IQuackBehavior&lt;/i&gt;" style="swimlane;fontStyle=1;align=center;verticalAlign=top;childLayout=stackLayout;horizontal=1;startSize=40;horizontalStack=0;resizeParent=1;resizeParentMax=0;resizeLast=0;collapsible=1;marginBottom=0;whiteSpace=wrap;html=1;" parent="WIyWlLk6GJQsqaUBKTNV-1" vertex="1">
          <mxGeometry x="60" y="660" width="160" height="66" as="geometry" />
        </mxCell>
        <mxCell id="QlOkIQeldyx6gdsehzbM-16" value="&lt;i&gt;+ Quack() : void&lt;/i&gt;" style="text;strokeColor=none;fillColor=none;align=left;verticalAlign=top;spacingLeft=4;spacingRight=4;overflow=hidden;rotatable=0;points=[[0,0.5],[1,0.5]];portConstraint=eastwest;whiteSpace=wrap;html=1;" parent="QlOkIQeldyx6gdsehzbM-15" vertex="1">
          <mxGeometry y="40" width="160" height="26" as="geometry" />
        </mxCell>
        <mxCell id="QlOkIQeldyx6gdsehzbM-17" value="&lt;div&gt;&lt;i&gt;&amp;lt;&amp;lt;interface&amp;gt;&amp;gt;&lt;/i&gt;&lt;/div&gt;&lt;i&gt;IFlyBehavior&lt;/i&gt;" style="swimlane;fontStyle=1;align=center;verticalAlign=top;childLayout=stackLayout;horizontal=1;startSize=40;horizontalStack=0;resizeParent=1;resizeParentMax=0;resizeLast=0;collapsible=1;marginBottom=0;whiteSpace=wrap;html=1;" parent="WIyWlLk6GJQsqaUBKTNV-1" vertex="1">
          <mxGeometry x="290" y="670" width="160" height="66" as="geometry" />
        </mxCell>
        <mxCell id="QlOkIQeldyx6gdsehzbM-18" value="&lt;i&gt;+ Fly() : void&lt;/i&gt;" style="text;strokeColor=none;fillColor=none;align=left;verticalAlign=top;spacingLeft=4;spacingRight=4;overflow=hidden;rotatable=0;points=[[0,0.5],[1,0.5]];portConstraint=eastwest;whiteSpace=wrap;html=1;" parent="QlOkIQeldyx6gdsehzbM-17" vertex="1">
          <mxGeometry y="40" width="160" height="26" as="geometry" />
        </mxCell>
        <mxCell id="QlOkIQeldyx6gdsehzbM-19" value="&lt;div&gt;&lt;i&gt;&amp;lt;&amp;lt;interface&amp;gt;&amp;gt;&lt;/i&gt;&lt;/div&gt;&lt;i&gt;IDance&lt;/i&gt;&lt;i&gt;Behavior&lt;/i&gt;" style="swimlane;fontStyle=1;align=center;verticalAlign=top;childLayout=stackLayout;horizontal=1;startSize=40;horizontalStack=0;resizeParent=1;resizeParentMax=0;resizeLast=0;collapsible=1;marginBottom=0;whiteSpace=wrap;html=1;" parent="WIyWlLk6GJQsqaUBKTNV-1" vertex="1">
          <mxGeometry x="520" y="660" width="160" height="66" as="geometry" />
        </mxCell>
        <mxCell id="QlOkIQeldyx6gdsehzbM-20" value="&lt;i&gt;+ Dance() : void&lt;/i&gt;" style="text;strokeColor=none;fillColor=none;align=left;verticalAlign=top;spacingLeft=4;spacingRight=4;overflow=hidden;rotatable=0;points=[[0,0.5],[1,0.5]];portConstraint=eastwest;whiteSpace=wrap;html=1;" parent="QlOkIQeldyx6gdsehzbM-19" vertex="1">
          <mxGeometry y="40" width="160" height="26" as="geometry" />
        </mxCell>
        <mxCell id="QlOkIQeldyx6gdsehzbM-23" style="edgeStyle=orthogonalEdgeStyle;rounded=0;orthogonalLoop=1;jettySize=auto;html=1;dashed=1;fontFamily=Helvetica;fontSize=13;endArrow=open;endFill=0;" parent="WIyWlLk6GJQsqaUBKTNV-1" source="QlOkIQeldyx6gdsehzbM-4" target="QlOkIQeldyx6gdsehzbM-10" edge="1">
          <mxGeometry relative="1" as="geometry">
            <Array as="points">
              <mxPoint x="538" y="180" />
              <mxPoint x="570" y="180" />
            </Array>
          </mxGeometry>
        </mxCell>
        <mxCell id="QlOkIQeldyx6gdsehzbM-26" style="edgeStyle=orthogonalEdgeStyle;rounded=0;orthogonalLoop=1;jettySize=auto;html=1;entryX=0.5;entryY=0;entryDx=0;entryDy=0;dashed=1;" parent="WIyWlLk6GJQsqaUBKTNV-1" source="QlOkIQeldyx6gdsehzbM-10" target="QlOkIQeldyx6gdsehzbM-15" edge="1">
          <mxGeometry relative="1" as="geometry">
            <mxPoint x="770" y="380" as="sourcePoint" />
            <mxPoint x="802" y="529" as="targetPoint" />
            <Array as="points">
              <mxPoint x="569" y="570" />
              <mxPoint x="140" y="570" />
            </Array>
          </mxGeometry>
        </mxCell>
        <mxCell id="QlOkIQeldyx6gdsehzbM-27" style="edgeStyle=orthogonalEdgeStyle;rounded=0;orthogonalLoop=1;jettySize=auto;html=1;entryX=0.5;entryY=0;entryDx=0;entryDy=0;dashed=1;" parent="WIyWlLk6GJQsqaUBKTNV-1" source="QlOkIQeldyx6gdsehzbM-10" target="QlOkIQeldyx6gdsehzbM-19" edge="1">
          <mxGeometry relative="1" as="geometry">
            <mxPoint x="575" y="438" as="sourcePoint" />
            <mxPoint x="140" y="550" as="targetPoint" />
            <Array as="points">
              <mxPoint x="569" y="570" />
              <mxPoint x="600" y="570" />
            </Array>
          </mxGeometry>
        </mxCell>
        <mxCell id="QlOkIQeldyx6gdsehzbM-29" style="edgeStyle=orthogonalEdgeStyle;rounded=0;orthogonalLoop=1;jettySize=auto;html=1;entryX=0.5;entryY=0;entryDx=0;entryDy=0;dashed=1;" parent="WIyWlLk6GJQsqaUBKTNV-1" source="QlOkIQeldyx6gdsehzbM-10" target="QlOkIQeldyx6gdsehzbM-17" edge="1">
          <mxGeometry relative="1" as="geometry">
            <mxPoint x="566" y="428" as="sourcePoint" />
            <mxPoint x="140" y="550" as="targetPoint" />
            <Array as="points">
              <mxPoint x="569" y="570" />
              <mxPoint x="370" y="570" />
            </Array>
          </mxGeometry>
        </mxCell>
        <mxCell id="QlOkIQeldyx6gdsehzbM-61" style="edgeStyle=orthogonalEdgeStyle;rounded=0;orthogonalLoop=1;jettySize=auto;html=1;endArrow=block;endFill=0;" parent="WIyWlLk6GJQsqaUBKTNV-1" source="QlOkIQeldyx6gdsehzbM-46" target="QlOkIQeldyx6gdsehzbM-10" edge="1">
          <mxGeometry relative="1" as="geometry">
            <mxPoint x="160.02857142857135" y="300" as="sourcePoint" />
            <mxPoint x="455" y="320" as="targetPoint" />
            <Array as="points">
              <mxPoint x="160" y="310" />
            </Array>
          </mxGeometry>
        </mxCell>
        <mxCell id="QlOkIQeldyx6gdsehzbM-46" value="MallardDuck" style="html=1;whiteSpace=wrap;" parent="WIyWlLk6GJQsqaUBKTNV-1" vertex="1">
          <mxGeometry x="105" y="258" width="110" height="32" as="geometry" />
        </mxCell>
        <mxCell id="QlOkIQeldyx6gdsehzbM-47" value="RedheadDuck" style="html=1;whiteSpace=wrap;" parent="WIyWlLk6GJQsqaUBKTNV-1" vertex="1">
          <mxGeometry x="270" y="258" width="110" height="32" as="geometry" />
        </mxCell>
        <mxCell id="QlOkIQeldyx6gdsehzbM-48" value="RubberDuck" style="html=1;whiteSpace=wrap;" parent="WIyWlLk6GJQsqaUBKTNV-1" vertex="1">
          <mxGeometry x="105" y="356" width="110" height="32" as="geometry" />
        </mxCell>
        <mxCell id="QlOkIQeldyx6gdsehzbM-49" value="ModelDuck" style="html=1;whiteSpace=wrap;" parent="WIyWlLk6GJQsqaUBKTNV-1" vertex="1">
          <mxGeometry x="105" y="430" width="110" height="32" as="geometry" />
        </mxCell>
        <mxCell id="QlOkIQeldyx6gdsehzbM-50" value="DecoyDuck" style="html=1;whiteSpace=wrap;" parent="WIyWlLk6GJQsqaUBKTNV-1" vertex="1">
          <mxGeometry x="270" y="356" width="110" height="32" as="geometry" />
        </mxCell>
        <mxCell id="QlOkIQeldyx6gdsehzbM-56" style="edgeStyle=orthogonalEdgeStyle;rounded=0;orthogonalLoop=1;jettySize=auto;html=1;dashed=1;fontFamily=Helvetica;fontSize=13;endArrow=open;endFill=0;" parent="WIyWlLk6GJQsqaUBKTNV-1" source="QlOkIQeldyx6gdsehzbM-1" target="QlOkIQeldyx6gdsehzbM-46" edge="1">
          <mxGeometry relative="1" as="geometry">
            <mxPoint x="548" y="152" as="sourcePoint" />
            <mxPoint x="580" y="240" as="targetPoint" />
            <Array as="points">
              <mxPoint x="160" y="190" />
              <mxPoint x="80" y="190" />
              <mxPoint x="80" y="240" />
              <mxPoint x="160" y="240" />
            </Array>
          </mxGeometry>
        </mxCell>
        <mxCell id="QlOkIQeldyx6gdsehzbM-57" style="edgeStyle=orthogonalEdgeStyle;rounded=0;orthogonalLoop=1;jettySize=auto;html=1;dashed=1;fontFamily=Helvetica;fontSize=13;endArrow=open;endFill=0;" parent="WIyWlLk6GJQsqaUBKTNV-1" source="QlOkIQeldyx6gdsehzbM-1" target="QlOkIQeldyx6gdsehzbM-47" edge="1">
          <mxGeometry relative="1" as="geometry">
            <mxPoint x="182" y="110" as="sourcePoint" />
            <mxPoint x="170" y="268" as="targetPoint" />
            <Array as="points">
              <mxPoint x="160" y="190" />
              <mxPoint x="80" y="190" />
              <mxPoint x="80" y="240" />
              <mxPoint x="325" y="240" />
            </Array>
          </mxGeometry>
        </mxCell>
        <mxCell id="QlOkIQeldyx6gdsehzbM-58" style="edgeStyle=orthogonalEdgeStyle;rounded=0;orthogonalLoop=1;jettySize=auto;html=1;dashed=1;fontFamily=Helvetica;fontSize=13;endArrow=open;endFill=0;" parent="WIyWlLk6GJQsqaUBKTNV-1" target="QlOkIQeldyx6gdsehzbM-50" edge="1">
          <mxGeometry relative="1" as="geometry">
            <mxPoint x="159.97" y="100" as="sourcePoint" />
            <mxPoint x="324.97" y="258" as="targetPoint" />
            <Array as="points">
              <mxPoint x="160" y="190" />
              <mxPoint x="80" y="190" />
              <mxPoint x="80" y="330" />
              <mxPoint x="325" y="330" />
            </Array>
          </mxGeometry>
        </mxCell>
        <mxCell id="QlOkIQeldyx6gdsehzbM-59" style="edgeStyle=orthogonalEdgeStyle;rounded=0;orthogonalLoop=1;jettySize=auto;html=1;dashed=1;fontFamily=Helvetica;fontSize=13;endArrow=open;endFill=0;" parent="WIyWlLk6GJQsqaUBKTNV-1" target="QlOkIQeldyx6gdsehzbM-48" edge="1">
          <mxGeometry relative="1" as="geometry">
            <mxPoint x="159.94" y="100" as="sourcePoint" />
            <mxPoint x="324.97" y="370" as="targetPoint" />
            <Array as="points">
              <mxPoint x="160" y="190" />
              <mxPoint x="80" y="190" />
              <mxPoint x="80" y="330" />
              <mxPoint x="160" y="330" />
            </Array>
          </mxGeometry>
        </mxCell>
        <mxCell id="QlOkIQeldyx6gdsehzbM-60" style="edgeStyle=orthogonalEdgeStyle;rounded=0;orthogonalLoop=1;jettySize=auto;html=1;dashed=1;fontFamily=Helvetica;fontSize=13;endArrow=open;endFill=0;" parent="WIyWlLk6GJQsqaUBKTNV-1" target="QlOkIQeldyx6gdsehzbM-49" edge="1">
          <mxGeometry relative="1" as="geometry">
            <mxPoint x="159.94" y="100" as="sourcePoint" />
            <mxPoint x="324.97" y="370" as="targetPoint" />
            <Array as="points">
              <mxPoint x="160" y="190" />
              <mxPoint x="80" y="190" />
              <mxPoint x="80" y="446" />
            </Array>
          </mxGeometry>
        </mxCell>
        <mxCell id="QlOkIQeldyx6gdsehzbM-63" style="edgeStyle=orthogonalEdgeStyle;rounded=0;orthogonalLoop=1;jettySize=auto;html=1;endArrow=block;endFill=0;" parent="WIyWlLk6GJQsqaUBKTNV-1" source="QlOkIQeldyx6gdsehzbM-47" target="QlOkIQeldyx6gdsehzbM-10" edge="1">
          <mxGeometry relative="1" as="geometry">
            <mxPoint x="160" y="290" as="sourcePoint" />
            <mxPoint x="455" y="420" as="targetPoint" />
            <Array as="points">
              <mxPoint x="325" y="310" />
            </Array>
          </mxGeometry>
        </mxCell>
        <mxCell id="QlOkIQeldyx6gdsehzbM-64" style="edgeStyle=orthogonalEdgeStyle;rounded=0;orthogonalLoop=1;jettySize=auto;html=1;endArrow=block;endFill=0;" parent="WIyWlLk6GJQsqaUBKTNV-1" source="QlOkIQeldyx6gdsehzbM-48" target="QlOkIQeldyx6gdsehzbM-10" edge="1">
          <mxGeometry relative="1" as="geometry">
            <mxPoint x="325" y="290" as="sourcePoint" />
            <mxPoint x="455" y="420" as="targetPoint" />
            <Array as="points">
              <mxPoint x="160" y="410" />
            </Array>
          </mxGeometry>
        </mxCell>
        <mxCell id="QlOkIQeldyx6gdsehzbM-65" style="edgeStyle=orthogonalEdgeStyle;rounded=0;orthogonalLoop=1;jettySize=auto;html=1;endArrow=block;endFill=0;" parent="WIyWlLk6GJQsqaUBKTNV-1" source="QlOkIQeldyx6gdsehzbM-50" target="QlOkIQeldyx6gdsehzbM-10" edge="1">
          <mxGeometry relative="1" as="geometry">
            <mxPoint x="160" y="402" as="sourcePoint" />
            <mxPoint x="455" y="420" as="targetPoint" />
            <Array as="points">
              <mxPoint x="325" y="410" />
            </Array>
          </mxGeometry>
        </mxCell>
        <mxCell id="QlOkIQeldyx6gdsehzbM-66" style="edgeStyle=orthogonalEdgeStyle;rounded=0;orthogonalLoop=1;jettySize=auto;html=1;endArrow=block;endFill=0;" parent="WIyWlLk6GJQsqaUBKTNV-1" source="QlOkIQeldyx6gdsehzbM-49" target="QlOkIQeldyx6gdsehzbM-10" edge="1">
          <mxGeometry relative="1" as="geometry">
            <mxPoint x="170" y="412" as="sourcePoint" />
            <mxPoint x="465" y="430" as="targetPoint" />
            <Array as="points">
              <mxPoint x="330" y="446" />
              <mxPoint x="330" y="446" />
            </Array>
          </mxGeometry>
        </mxCell>
        <mxCell id="QlOkIQeldyx6gdsehzbM-67" value="QuakeBehavior" style="shape=module;align=left;spacingLeft=20;align=center;verticalAlign=top;whiteSpace=wrap;html=1;" parent="WIyWlLk6GJQsqaUBKTNV-1" vertex="1">
          <mxGeometry x="30" y="760" width="200" height="220" as="geometry" />
        </mxCell>
        <mxCell id="QlOkIQeldyx6gdsehzbM-68" value="Quake" style="html=1;whiteSpace=wrap;" parent="WIyWlLk6GJQsqaUBKTNV-1" vertex="1">
          <mxGeometry x="67.5" y="810" width="125" height="32" as="geometry" />
        </mxCell>
        <mxCell id="QlOkIQeldyx6gdsehzbM-69" value="Squeak" style="html=1;whiteSpace=wrap;" parent="WIyWlLk6GJQsqaUBKTNV-1" vertex="1">
          <mxGeometry x="67.5" y="860" width="125" height="32" as="geometry" />
        </mxCell>
        <mxCell id="QlOkIQeldyx6gdsehzbM-70" value="MuteQuack" style="html=1;whiteSpace=wrap;" parent="WIyWlLk6GJQsqaUBKTNV-1" vertex="1">
          <mxGeometry x="67.5" y="910" width="125" height="32" as="geometry" />
        </mxCell>
        <mxCell id="QlOkIQeldyx6gdsehzbM-71" value="FlyBehavior" style="shape=module;align=left;spacingLeft=20;align=center;verticalAlign=top;whiteSpace=wrap;html=1;" parent="WIyWlLk6GJQsqaUBKTNV-1" vertex="1">
          <mxGeometry x="270" y="760" width="200" height="160" as="geometry" />
        </mxCell>
        <mxCell id="QlOkIQeldyx6gdsehzbM-72" value="FlyNoWay" style="html=1;whiteSpace=wrap;" parent="WIyWlLk6GJQsqaUBKTNV-1" vertex="1">
          <mxGeometry x="305" y="810" width="125" height="32" as="geometry" />
        </mxCell>
        <mxCell id="QlOkIQeldyx6gdsehzbM-73" value="FlyWithWings" style="html=1;whiteSpace=wrap;" parent="WIyWlLk6GJQsqaUBKTNV-1" vertex="1">
          <mxGeometry x="305" y="860" width="125" height="32" as="geometry" />
        </mxCell>
        <mxCell id="QlOkIQeldyx6gdsehzbM-75" value="DanceBehavior" style="shape=module;align=left;spacingLeft=20;align=center;verticalAlign=top;whiteSpace=wrap;html=1;" parent="WIyWlLk6GJQsqaUBKTNV-1" vertex="1">
          <mxGeometry x="500" y="760" width="200" height="220" as="geometry" />
        </mxCell>
        <mxCell id="QlOkIQeldyx6gdsehzbM-76" value="Waltz" style="html=1;whiteSpace=wrap;" parent="WIyWlLk6GJQsqaUBKTNV-1" vertex="1">
          <mxGeometry x="535" y="810" width="125" height="32" as="geometry" />
        </mxCell>
        <mxCell id="QlOkIQeldyx6gdsehzbM-77" value="Minuet" style="html=1;whiteSpace=wrap;" parent="WIyWlLk6GJQsqaUBKTNV-1" vertex="1">
          <mxGeometry x="535" y="860" width="125" height="32" as="geometry" />
        </mxCell>
        <mxCell id="QlOkIQeldyx6gdsehzbM-78" value="NoDance" style="html=1;whiteSpace=wrap;" parent="WIyWlLk6GJQsqaUBKTNV-1" vertex="1">
          <mxGeometry x="535" y="910" width="125" height="32" as="geometry" />
        </mxCell>
        <mxCell id="QlOkIQeldyx6gdsehzbM-79" style="edgeStyle=orthogonalEdgeStyle;rounded=0;orthogonalLoop=1;jettySize=auto;html=1;endArrow=block;endFill=0;" parent="WIyWlLk6GJQsqaUBKTNV-1" source="QlOkIQeldyx6gdsehzbM-68" target="QlOkIQeldyx6gdsehzbM-15" edge="1">
          <mxGeometry relative="1" as="geometry">
            <mxPoint x="199.96" y="649" as="sourcePoint" />
            <mxPoint x="130.00347826086963" y="629" as="targetPoint" />
            <Array as="points">
              <mxPoint x="250" y="826" />
              <mxPoint x="250" y="690" />
            </Array>
          </mxGeometry>
        </mxCell>
        <mxCell id="QlOkIQeldyx6gdsehzbM-80" style="edgeStyle=orthogonalEdgeStyle;rounded=0;orthogonalLoop=1;jettySize=auto;html=1;endArrow=block;endFill=0;" parent="WIyWlLk6GJQsqaUBKTNV-1" source="QlOkIQeldyx6gdsehzbM-69" target="QlOkIQeldyx6gdsehzbM-15" edge="1">
          <mxGeometry relative="1" as="geometry">
            <mxPoint x="192.5" y="853" as="sourcePoint" />
            <mxPoint x="219.5" y="720" as="targetPoint" />
            <Array as="points">
              <mxPoint x="250" y="880" />
              <mxPoint x="250" y="690" />
            </Array>
          </mxGeometry>
        </mxCell>
        <mxCell id="QlOkIQeldyx6gdsehzbM-81" style="edgeStyle=orthogonalEdgeStyle;rounded=0;orthogonalLoop=1;jettySize=auto;html=1;endArrow=block;endFill=0;" parent="WIyWlLk6GJQsqaUBKTNV-1" source="QlOkIQeldyx6gdsehzbM-70" target="QlOkIQeldyx6gdsehzbM-15" edge="1">
          <mxGeometry relative="1" as="geometry">
            <mxPoint x="192.5" y="880" as="sourcePoint" />
            <mxPoint x="219.5" y="690" as="targetPoint" />
            <Array as="points">
              <mxPoint x="250" y="930" />
              <mxPoint x="250" y="690" />
            </Array>
          </mxGeometry>
        </mxCell>
        <mxCell id="QlOkIQeldyx6gdsehzbM-84" style="edgeStyle=orthogonalEdgeStyle;rounded=0;orthogonalLoop=1;jettySize=auto;html=1;endArrow=block;endFill=0;" parent="WIyWlLk6GJQsqaUBKTNV-1" source="QlOkIQeldyx6gdsehzbM-72" target="QlOkIQeldyx6gdsehzbM-17" edge="1">
          <mxGeometry relative="1" as="geometry">
            <mxPoint x="420" y="942" as="sourcePoint" />
            <mxPoint x="447" y="702" as="targetPoint" />
            <Array as="points">
              <mxPoint x="480" y="826" />
              <mxPoint x="480" y="700" />
            </Array>
          </mxGeometry>
        </mxCell>
        <mxCell id="QlOkIQeldyx6gdsehzbM-85" style="edgeStyle=orthogonalEdgeStyle;rounded=0;orthogonalLoop=1;jettySize=auto;html=1;endArrow=block;endFill=0;" parent="WIyWlLk6GJQsqaUBKTNV-1" source="QlOkIQeldyx6gdsehzbM-73" target="QlOkIQeldyx6gdsehzbM-17" edge="1">
          <mxGeometry relative="1" as="geometry">
            <mxPoint x="440" y="850" as="sourcePoint" />
            <mxPoint x="460" y="726" as="targetPoint" />
            <Array as="points">
              <mxPoint x="480" y="876" />
              <mxPoint x="480" y="700" />
            </Array>
          </mxGeometry>
        </mxCell>
        <mxCell id="QlOkIQeldyx6gdsehzbM-86" style="edgeStyle=orthogonalEdgeStyle;rounded=0;orthogonalLoop=1;jettySize=auto;html=1;endArrow=block;endFill=0;" parent="WIyWlLk6GJQsqaUBKTNV-1" source="QlOkIQeldyx6gdsehzbM-76" target="QlOkIQeldyx6gdsehzbM-19" edge="1">
          <mxGeometry relative="1" as="geometry">
            <mxPoint x="670" y="876" as="sourcePoint" />
            <mxPoint x="690" y="700" as="targetPoint" />
            <Array as="points">
              <mxPoint x="720" y="830" />
              <mxPoint x="720" y="690" />
            </Array>
          </mxGeometry>
        </mxCell>
        <mxCell id="QlOkIQeldyx6gdsehzbM-87" style="edgeStyle=orthogonalEdgeStyle;rounded=0;orthogonalLoop=1;jettySize=auto;html=1;endArrow=block;endFill=0;" parent="WIyWlLk6GJQsqaUBKTNV-1" source="QlOkIQeldyx6gdsehzbM-77" target="QlOkIQeldyx6gdsehzbM-19" edge="1">
          <mxGeometry relative="1" as="geometry">
            <mxPoint x="660" y="830" as="sourcePoint" />
            <mxPoint x="680" y="690" as="targetPoint" />
            <Array as="points">
              <mxPoint x="720" y="876" />
              <mxPoint x="720" y="690" />
            </Array>
          </mxGeometry>
        </mxCell>
        <mxCell id="QlOkIQeldyx6gdsehzbM-88" style="edgeStyle=orthogonalEdgeStyle;rounded=0;orthogonalLoop=1;jettySize=auto;html=1;endArrow=block;endFill=0;" parent="WIyWlLk6GJQsqaUBKTNV-1" source="QlOkIQeldyx6gdsehzbM-78" target="QlOkIQeldyx6gdsehzbM-19" edge="1">
          <mxGeometry relative="1" as="geometry">
            <mxPoint x="660" y="876" as="sourcePoint" />
            <mxPoint x="680" y="690" as="targetPoint" />
            <Array as="points">
              <mxPoint x="720" y="926" />
              <mxPoint x="720" y="690" />
            </Array>
          </mxGeometry>
        </mxCell>
      </root>
    </mxGraphModel>
  </diagram>
</mxfile>
